<?xml version="1.0" encoding="UTF-8"?>
<svg xmlns="http://www.w3.org/2000/svg" viewBox="0 0 24 24" width="24" height="24">
  <path data-layer="monochrome-0" fill="#000000" d="M19.9759 14.3077 C21.1118 14.3077 22.0312 13.399 22.0312 12.2632 C22.0312 11.1274 21.1118 10.2079 19.9759 10.2079 C18.8401 10.2079 17.9207 11.1274 17.9207 12.2632 C17.9207 13.399 18.8401 14.3077 19.9759 14.3077 Z"/>
  <path data-layer="monochrome-0" fill="#000000" d="M11.9387 14.3077 C13.0745 14.3077 13.9832 13.399 13.9832 12.2632 C13.9832 11.1274 13.0745 10.2079 11.9387 10.2079 C10.8029 10.2079 9.8834 11.1274 9.8834 12.2632 C9.8834 13.399 10.8029 14.3077 11.9387 14.3077 Z"/>
  <path data-layer="monochrome-0" fill="#000000" d="M3.9014 14.3077 C5.0373 14.3077 5.9459 13.399 5.9459 12.2632 C5.9459 11.1274 5.0373 10.2079 3.9014 10.2079 C2.7656 10.2079 1.8462 11.1274 1.8462 12.2632 C1.8462 13.399 2.7656 14.3077 3.9014 14.3077 Z"/>
</svg>
