<?xml version="1.0" encoding="UTF-8"?>
<svg xmlns="http://www.w3.org/2000/svg" viewBox="0 0 24 24" width="24" height="24">
  <path data-layer="monochrome-0" fill="#000000" d="M11.8367 8.5161 L10.63 9.7409 C11.8276 9.8407 12.6078 10.1945 13.1976 10.7843 C14.7853 12.372 14.7762 14.6219 13.2066 16.1915 L10.2399 19.1492 C8.6613 20.7278 6.4294 20.7369 4.8417 19.1582 C3.254 17.5615 3.2631 15.3296 4.8417 13.751 L6.6199 11.9728 C6.3659 11.4012 6.3024 10.7207 6.4022 10.131 L3.7349 12.7893 C1.5665 14.9667 1.5484 18.0514 3.7439 20.2469 C5.9486 22.4516 9.0333 22.4334 11.2016 20.2651 L14.3044 17.1532 C16.4818 14.9758 16.5 11.8911 14.2953 9.6955 C13.7238 9.124 12.998 8.7157 11.8367 8.5161 Z M11.6099 15.9919 L12.8165 14.7671 C11.6189 14.6764 10.8387 14.3135 10.249 13.7238 C8.6613 12.1361 8.6703 9.8861 10.2399 8.3165 L13.1976 5.3589 C14.7853 3.7802 17.0171 3.7711 18.6048 5.3589 C20.1925 6.9465 20.1744 9.1875 18.6048 10.757 L16.8266 12.5353 C17.0806 13.1159 17.1351 13.7873 17.0443 14.377 L19.7117 11.7187 C21.88 9.5413 21.8982 6.4657 19.7026 4.2611 C17.498 2.0564 14.4133 2.0746 12.2359 4.252 L9.1421 7.3548 C6.9647 9.5322 6.9466 12.6169 9.1512 14.8125 C9.7228 15.384 10.4486 15.7923 11.6099 15.9919 Z"/>
</svg>
