<?xml version="1.0" encoding="UTF-8"?>
<svg xmlns="http://www.w3.org/2000/svg" viewBox="0 0 24 24" width="24" height="24">
  <path data-layer="monochrome-0" fill="#000000" d="M5.6085 19.7647 L18.3391 19.7647 C20.4237 19.7647 21.6231 18.5073 21.6231 16.2739 L21.6231 8.0349 C21.6231 5.8015 20.4237 4.5358 18.3391 4.5358 L5.6085 4.5358 C3.3833 4.5358 2.1176 5.8015 2.1176 8.0349 L2.1176 16.2739 C2.1176 18.5073 3.3833 19.7647 5.6085 19.7647 Z M5.6167 18.4329 C4.2436 18.4329 3.4494 17.647 3.4494 16.2739 L3.4494 8.0349 C3.4494 6.6618 4.2436 5.8676 5.6167 5.8676 L18.1241 5.8676 C19.4972 5.8676 20.2913 6.6618 20.2913 8.0349 L20.2913 16.2739 C20.2913 17.647 19.4972 18.4329 18.1241 18.4329 Z"/>
  <path data-layer="monochrome-0" fill="#000000" d="M5.7822 8.8952 C6.1875 8.8952 6.5184 8.5478 6.5184 8.159 C6.5184 7.7619 6.1875 7.4145 5.7822 7.4145 C5.3768 7.4145 5.046 7.7619 5.046 8.159 C5.046 8.5478 5.3768 8.8952 5.7822 8.8952 Z"/>
  <path data-layer="monochrome-0" fill="#000000" d="M8.1562 8.8952 C8.5616 8.8952 8.8925 8.5478 8.8925 8.159 C8.8925 7.7619 8.5616 7.4145 8.1562 7.4145 C7.7509 7.4145 7.42 7.7619 7.42 8.159 C7.42 8.5478 7.7509 8.8952 8.1562 8.8952 Z"/>
  <path data-layer="monochrome-0" fill="#000000" d="M10.5303 8.8952 C10.9357 8.8952 11.2665 8.5478 11.2665 8.159 C11.2665 7.7619 10.9357 7.4145 10.5303 7.4145 C10.125 7.4145 9.7941 7.7619 9.7941 8.159 C9.7941 8.5478 10.125 8.8952 10.5303 8.8952 Z"/>
</svg>
