<?xml version="1.0" encoding="UTF-8"?>
<svg xmlns="http://www.w3.org/2000/svg" viewBox="0 0 24 24" width="24" height="24">
  <path data-layer="monochrome-0" fill="#000000" d="M2.1429 10.4833 C2.1429 14.903 5.7388 18.4989 10.1585 18.4989 C11.9062 18.4989 13.5033 17.9364 14.8192 16.9922 L19.7611 21.9442 C19.9922 22.1753 20.2935 22.2858 20.6149 22.2858 C21.298 22.2858 21.7701 21.7735 21.7701 21.1005 C21.7701 20.7791 21.6495 20.4878 21.4386 20.2768 L16.5268 15.3349 C17.5614 13.9889 18.1741 12.3114 18.1741 10.4833 C18.1741 6.0637 14.5781 2.4677 10.1585 2.4677 C5.7388 2.4677 2.1429 6.0637 2.1429 10.4833 Z M3.8605 10.4833 C3.8605 7.0079 6.683 4.1853 10.1585 4.1853 C13.6339 4.1853 16.4565 7.0079 16.4565 10.4833 C16.4565 13.9588 13.6339 16.7813 10.1585 16.7813 C6.683 16.7813 3.8605 13.9588 3.8605 10.4833 Z"/>
</svg>
