<?xml version="1.0" encoding="UTF-8"?>
<svg xmlns="http://www.w3.org/2000/svg" viewBox="0 0 24 24" width="24" height="24">
  <path data-layer="monochrome-0" fill="#000000" d="M4.6572 19.1856 L18.5211 19.1856 C20.0184 19.1856 20.7711 18.3502 20.7711 16.7619 L15.8575 12.1461 C15.4936 11.807 15.0551 11.6333 14.6084 11.6333 C14.1535 11.6333 13.7482 11.7904 13.3676 12.1296 L9.6287 15.4715 L8.0983 14.0901 C7.7509 13.7757 7.3704 13.6186 6.9816 13.6186 C6.6094 13.6186 6.2537 13.7675 5.9145 14.0818 L2.7629 16.9274 C2.8125 18.4246 3.4246 19.1856 4.6572 19.1856 Z M4.7151 19.7647 L19.0257 19.7647 C20.7629 19.7647 21.6231 18.9127 21.6231 17.2086 L21.6231 7.1002 C21.6231 5.3961 20.7629 4.5358 19.0257 4.5358 L4.7151 4.5358 C2.9862 4.5358 2.1176 5.3961 2.1176 7.1002 L2.1176 17.2086 C2.1176 18.9127 2.9862 19.7647 4.7151 19.7647 Z M4.7316 18.4329 C3.9044 18.4329 3.4494 17.9945 3.4494 17.1342 L3.4494 7.1746 C3.4494 6.3143 3.9044 5.8676 4.7316 5.8676 L19.0092 5.8676 C19.8281 5.8676 20.2913 6.3143 20.2913 7.1746 L20.2913 17.1342 C20.2913 17.9945 19.8281 18.4329 19.0092 18.4329 Z"/>
  <path data-layer="monochrome-0" fill="#000000" d="M8.2803 12.2288 C9.3474 12.2288 10.2243 11.352 10.2243 10.2766 C10.2243 9.2096 9.3474 8.3244 8.2803 8.3244 C7.205 8.3244 6.3281 9.2096 6.3281 10.2766 C6.3281 11.352 7.205 12.2288 8.2803 12.2288 Z"/>
</svg>
