<?xml version="1.0" encoding="UTF-8"?>
<svg xmlns="http://www.w3.org/2000/svg" viewBox="0 0 24 24" width="24" height="24">
  <path data-layer="monochrome-0" fill="#000000" d="M2.1176 8.8953 L3.4494 8.8953 L3.4494 7.1664 C3.4494 6.3061 3.9044 5.8677 4.7316 5.8677 L6.4439 5.8677 L6.4439 4.5359 L4.7151 4.5359 C2.9862 4.5359 2.1176 5.3879 2.1176 7.1002 Z M2.1176 14.2721 L3.4494 14.2721 L3.4494 10.0285 L2.1176 10.0285 Z M4.7151 19.7647 L6.4439 19.7647 L6.4439 18.4329 L4.7316 18.4329 C3.9044 18.4329 3.4494 17.9945 3.4494 17.1342 L3.4494 15.4054 L2.1176 15.4054 L2.1176 17.2004 C2.1176 18.9127 2.9862 19.7647 4.7151 19.7647 Z M7.5772 19.7647 L11.3079 19.7647 L11.3079 18.4329 L7.5772 18.4329 Z M12.4329 19.7647 L16.1636 19.7647 L16.1636 18.4329 L12.4329 18.4329 Z M19.0257 19.7647 C20.7546 19.7647 21.6231 18.9127 21.6231 17.2004 L21.6231 15.4054 L20.2913 15.4054 L20.2913 17.1342 C20.2913 17.9945 19.8364 18.4329 19.0092 18.4329 L17.2969 18.4329 L17.2969 19.7647 Z M21.6231 8.8953 L21.6231 7.1002 C21.6231 5.3879 20.7546 4.5359 19.0257 4.5359 L17.2969 4.5359 L17.2969 5.8677 L19.0092 5.8677 C19.8364 5.8677 20.2913 6.3061 20.2913 7.1664 L20.2913 8.8953 Z M21.6231 14.2721 L21.6231 10.0285 L20.2913 10.0285 L20.2913 14.2721 Z M7.5772 5.8677 L11.3079 5.8677 L11.3079 4.5359 L7.5772 4.5359 Z M12.4329 5.8677 L16.1636 5.8677 L16.1636 4.5359 L12.4329 4.5359 Z"/>
</svg>
