<?xml version="1.0" encoding="UTF-8"?>
<svg xmlns="http://www.w3.org/2000/svg" viewBox="0 0 24 24" width="24" height="24">
  <path data-layer="monochrome-0" fill="#000000" d="M3.4353 21.4285 C3.9074 21.4285 4.2991 21.0368 4.2991 20.5647 C4.2991 20.0926 3.9074 19.7009 3.4353 19.7009 C2.9632 19.7009 2.5714 20.0926 2.5714 20.5647 C2.5714 21.0368 2.9632 21.4285 3.4353 21.4285 Z M3.4353 18.6261 C3.9074 18.6261 4.2991 18.2343 4.2991 17.7622 C4.2991 17.2801 3.9074 16.8984 3.4353 16.8984 C2.9632 16.8984 2.5714 17.2801 2.5714 17.7622 C2.5714 18.2343 2.9632 18.6261 3.4353 18.6261 Z M3.4353 15.8136 C3.9074 15.8136 4.2991 15.4218 4.2991 14.9497 C4.2991 14.4776 3.9074 14.0859 3.4353 14.0859 C2.9632 14.0859 2.5714 14.4776 2.5714 14.9497 C2.5714 15.4218 2.9632 15.8136 3.4353 15.8136 Z M3.4353 13.0011 C3.9074 13.0011 4.2991 12.6093 4.2991 12.1372 C4.2991 11.6652 3.9074 11.2734 3.4353 11.2734 C2.9632 11.2734 2.5714 11.6652 2.5714 12.1372 C2.5714 12.6093 2.9632 13.0011 3.4353 13.0011 Z M6.2478 13.0011 C6.7199 13.0011 7.1116 12.6093 7.1116 12.1372 C7.1116 11.6652 6.7199 11.2734 6.2478 11.2734 C5.7757 11.2734 5.3839 11.6652 5.3839 12.1372 C5.3839 12.6093 5.7757 13.0011 6.2478 13.0011 Z M9.0502 13.0011 C9.5223 13.0011 9.9141 12.6093 9.9141 12.1372 C9.9141 11.6652 9.5223 11.2734 9.0502 11.2734 C8.5781 11.2734 8.1864 11.6652 8.1864 12.1372 C8.1864 12.6093 8.5781 13.0011 9.0502 13.0011 Z M11.8627 13.0011 C12.3348 13.0011 12.7265 12.6093 12.7265 12.1372 C12.7265 11.6652 12.3348 11.2734 11.8627 11.2734 C11.3906 11.2734 10.9989 11.6652 10.9989 12.1372 C10.9989 12.6093 11.3906 13.0011 11.8627 13.0011 Z M11.8627 15.8136 C12.3348 15.8136 12.7265 15.4218 12.7265 14.9497 C12.7265 14.4776 12.3348 14.0859 11.8627 14.0859 C11.3906 14.0859 10.9989 14.4776 10.9989 14.9497 C10.9989 15.4218 11.3906 15.8136 11.8627 15.8136 Z M11.8627 18.6261 C12.3348 18.6261 12.7265 18.2343 12.7265 17.7622 C12.7265 17.2801 12.3348 16.8984 11.8627 16.8984 C11.3906 16.8984 10.9989 17.2801 10.9989 17.7622 C10.9989 18.2343 11.3906 18.6261 11.8627 18.6261 Z M11.8627 21.4285 C12.3348 21.4285 12.7265 21.0368 12.7265 20.5647 C12.7265 20.0926 12.3348 19.7009 11.8627 19.7009 C11.3906 19.7009 10.9989 20.0926 10.9989 20.5647 C10.9989 21.0368 11.3906 21.4285 11.8627 21.4285 Z M9.0502 21.4285 C9.5223 21.4285 9.9141 21.0368 9.9141 20.5647 C9.9141 20.0926 9.5223 19.7009 9.0502 19.7009 C8.5781 19.7009 8.1864 20.0926 8.1864 20.5647 C8.1864 21.0368 8.5781 21.4285 9.0502 21.4285 Z M6.2478 21.4285 C6.7199 21.4285 7.1116 21.0368 7.1116 20.5647 C7.1116 20.0926 6.7199 19.7009 6.2478 19.7009 C5.7757 19.7009 5.3839 20.0926 5.3839 20.5647 C5.3839 21.0368 5.7757 21.4285 6.2478 21.4285 Z"/>
  <path data-layer="monochrome-0" fill="#000000" d="M2.5815 10.1082 L4.1987 10.1082 L4.1987 4.8147 C4.1987 4.5937 4.279 4.5234 4.49 4.5234 L16.8449 4.5234 L18.4821 2.9062 L3.385 2.9062 C2.9029 2.9062 2.5815 3.2176 2.5815 3.6998 Z M17.8694 8.6317 L15.2176 5.9799 C14.8962 5.6584 14.4241 5.8292 14.3237 6.2812 L13.6205 9.5156 C13.5402 9.9375 13.9018 10.289 14.3136 10.1785 L17.558 9.5055 C18.0201 9.4152 18.1808 8.9631 17.8694 8.6317 Z M19.7176 3.2879 L14.8962 8.1194 C14.6652 8.3404 14.6451 8.7321 14.8962 8.9832 C15.1373 9.2142 15.519 9.2142 15.76 8.9732 L20.5815 4.1417 C20.8125 3.9107 20.8225 3.529 20.5915 3.2879 C20.3404 3.0468 19.9587 3.0569 19.7176 3.2879 Z"/>
  <path data-layer="monochrome-0" fill="#000000" d="M13.8917 21.3984 L20.2801 21.3984 C20.7623 21.3984 21.0736 21.077 21.0736 20.5948 L21.0736 5.337 L19.4565 6.9241 L19.4565 19.4899 C19.4565 19.7009 19.3862 19.7812 19.1652 19.7812 L13.8917 19.7812 Z"/>
</svg>
