<?xml version="1.0" encoding="UTF-8"?>
<svg xmlns="http://www.w3.org/2000/svg" viewBox="0 0 24 24" width="24" height="24">
  <path data-layer="monochrome-0" fill="#000000" d="M3.15 20.4 L13.6031 20.4 C14.025 20.4 14.3625 20.0719 14.3625 19.65 C14.3625 19.2281 14.025 18.8906 13.6031 18.8906 L3.15 18.8906 C2.7281 18.8906 2.4 19.2281 2.4 19.65 C2.4 20.0719 2.7281 20.4 3.15 20.4 Z"/>
  <path data-layer="monochrome-0" fill="#000000" d="M3.15 15.4969 L20.5219 15.4969 C20.9437 15.4969 21.2906 15.1688 21.2906 14.7469 C21.2906 14.3157 20.9437 13.9875 20.5219 13.9875 L3.15 13.9875 C2.7281 13.9875 2.4 14.3157 2.4 14.7469 C2.4 15.1688 2.7281 15.4969 3.15 15.4969 Z"/>
  <path data-layer="monochrome-0" fill="#000000" d="M3.15 10.5938 L13.6031 10.5938 C14.025 10.5938 14.3625 10.2563 14.3625 9.8344 C14.3625 9.4125 14.025 9.0844 13.6031 9.0844 L3.15 9.0844 C2.7281 9.0844 2.4 9.4125 2.4 9.8344 C2.4 10.2563 2.7281 10.5938 3.15 10.5938 Z"/>
  <path data-layer="monochrome-0" fill="#000000" d="M3.15 5.6813 L20.5219 5.6813 C20.9437 5.6813 21.2906 5.3532 21.2906 4.9313 C21.2906 4.5094 20.9437 4.1719 20.5219 4.1719 L3.15 4.1719 C2.7281 4.1719 2.4 4.5094 2.4 4.9313 C2.4 5.3532 2.7281 5.6813 3.15 5.6813 Z"/>
</svg>
