<?xml version="1.0" encoding="UTF-8"?>
<svg xmlns="http://www.w3.org/2000/svg" aria-hidden="true" style="display:none">
  <symbol id="sf-magnifyingglass" viewBox="0 0 24 24">
    <path fill="currentColor" d="M2.1429 10.4833 C2.1429 14.903 5.7388 18.4989 10.1585 18.4989 C11.9062 18.4989 13.5033 17.9364 14.8192 16.9922 L19.7611 21.9442 C19.9922 22.1753 20.2935 22.2858 20.6149 22.2858 C21.298 22.2858 21.7701 21.7735 21.7701 21.1005 C21.7701 20.7791 21.6495 20.4878 21.4386 20.2768 L16.5268 15.3349 C17.5614 13.9889 18.1741 12.3114 18.1741 10.4833 C18.1741 6.0637 14.5781 2.4677 10.1585 2.4677 C5.7388 2.4677 2.1429 6.0637 2.1429 10.4833 Z M3.8605 10.4833 C3.8605 7.0079 6.683 4.1853 10.1585 4.1853 C13.6339 4.1853 16.4565 7.0079 16.4565 10.4833 C16.4565 13.9588 13.6339 16.7813 10.1585 16.7813 C6.683 16.7813 3.8605 13.9588 3.8605 10.4833 Z"/>
  </symbol>
  <symbol id="sf-link" viewBox="0 0 24 24">
    <path fill="currentColor" d="M11.8367 8.5161 L10.63 9.7409 C11.8276 9.8407 12.6078 10.1945 13.1976 10.7843 C14.7853 12.372 14.7762 14.6219 13.2066 16.1915 L10.2399 19.1492 C8.6613 20.7278 6.4294 20.7369 4.8417 19.1582 C3.254 17.5615 3.2631 15.3296 4.8417 13.751 L6.6199 11.9728 C6.3659 11.4012 6.3024 10.7207 6.4022 10.131 L3.7349 12.7893 C1.5665 14.9667 1.5484 18.0514 3.7439 20.2469 C5.9486 22.4516 9.0333 22.4334 11.2016 20.2651 L14.3044 17.1532 C16.4818 14.9758 16.5 11.8911 14.2953 9.6955 C13.7238 9.124 12.998 8.7157 11.8367 8.5161 Z M11.6099 15.9919 L12.8165 14.7671 C11.6189 14.6764 10.8387 14.3135 10.249 13.7238 C8.6613 12.1361 8.6703 9.8861 10.2399 8.3165 L13.1976 5.3589 C14.7853 3.7802 17.0171 3.7711 18.6048 5.3589 C20.1925 6.9465 20.1744 9.1875 18.6048 10.757 L16.8266 12.5353 C17.0806 13.1159 17.1351 13.7873 17.0443 14.377 L19.7117 11.7187 C21.88 9.5413 21.8982 6.4657 19.7026 4.2611 C17.498 2.0564 14.4133 2.0746 12.2359 4.252 L9.1421 7.3548 C6.9647 9.5322 6.9466 12.6169 9.1512 14.8125 C9.7228 15.384 10.4486 15.7923 11.6099 15.9919 Z"/>
  </symbol>
  <symbol id="sf-text-alignleft" viewBox="0 0 24 24">
    <path fill="currentColor" d="M3.15 20.4 L13.6031 20.4 C14.025 20.4 14.3625 20.0719 14.3625 19.65 C14.3625 19.2281 14.025 18.8906 13.6031 18.8906 L3.15 18.8906 C2.7281 18.8906 2.4 19.2281 2.4 19.65 C2.4 20.0719 2.7281 20.4 3.15 20.4 Z"/>
    <path fill="currentColor" d="M3.15 15.4969 L20.5219 15.4969 C20.9437 15.4969 21.2906 15.1688 21.2906 14.7469 C21.2906 14.3157 20.9437 13.9875 20.5219 13.9875 L3.15 13.9875 C2.7281 13.9875 2.4 14.3157 2.4 14.7469 C2.4 15.1688 2.7281 15.4969 3.15 15.4969 Z"/>
    <path fill="currentColor" d="M3.15 10.5938 L13.6031 10.5938 C14.025 10.5938 14.3625 10.2563 14.3625 9.8344 C14.3625 9.4125 14.025 9.0844 13.6031 9.0844 L3.15 9.0844 C2.7281 9.0844 2.4 9.4125 2.4 9.8344 C2.4 10.2563 2.7281 10.5938 3.15 10.5938 Z"/>
    <path fill="currentColor" d="M3.15 5.6813 L20.5219 5.6813 C20.9437 5.6813 21.2906 5.3532 21.2906 4.9313 C21.2906 4.5094 20.9437 4.1719 20.5219 4.1719 L3.15 4.1719 C2.7281 4.1719 2.4 4.5094 2.4 4.9313 C2.4 5.3532 2.7281 5.6813 3.15 5.6813 Z"/>
  </symbol>
  <symbol id="sf-photo" viewBox="0 0 24 24">
    <path fill="currentColor" d="M4.6572 19.1856 L18.5211 19.1856 C20.0184 19.1856 20.7711 18.3502 20.7711 16.7619 L15.8575 12.1461 C15.4936 11.807 15.0551 11.6333 14.6084 11.6333 C14.1535 11.6333 13.7482 11.7904 13.3676 12.1296 L9.6287 15.4715 L8.0983 14.0901 C7.7509 13.7757 7.3704 13.6186 6.9816 13.6186 C6.6094 13.6186 6.2537 13.7675 5.9145 14.0818 L2.7629 16.9274 C2.8125 18.4246 3.4246 19.1856 4.6572 19.1856 Z M4.7151 19.7647 L19.0257 19.7647 C20.7629 19.7647 21.6231 18.9127 21.6231 17.2086 L21.6231 7.1002 C21.6231 5.3961 20.7629 4.5358 19.0257 4.5358 L4.7151 4.5358 C2.9862 4.5358 2.1176 5.3961 2.1176 7.1002 L2.1176 17.2086 C2.1176 18.9127 2.9862 19.7647 4.7151 19.7647 Z M4.7316 18.4329 C3.9044 18.4329 3.4494 17.9945 3.4494 17.1342 L3.4494 7.1746 C3.4494 6.3143 3.9044 5.8676 4.7316 5.8676 L19.0092 5.8676 C19.8281 5.8676 20.2913 6.3143 20.2913 7.1746 L20.2913 17.1342 C20.2913 17.9945 19.8281 18.4329 19.0092 18.4329 Z"/>
    <path fill="currentColor" d="M8.2803 12.2288 C9.3474 12.2288 10.2243 11.352 10.2243 10.2766 C10.2243 9.2096 9.3474 8.3244 8.2803 8.3244 C7.205 8.3244 6.3281 9.2096 6.3281 10.2766 C6.3281 11.352 7.205 12.2288 8.2803 12.2288 Z"/>
  </symbol>
  <symbol id="sf-rectangle-dashed" viewBox="0 0 24 24">
    <path fill="currentColor" d="M2.1176 8.8953 L3.4494 8.8953 L3.4494 7.1664 C3.4494 6.3061 3.9044 5.8677 4.7316 5.8677 L6.4439 5.8677 L6.4439 4.5359 L4.7151 4.5359 C2.9862 4.5359 2.1176 5.3879 2.1176 7.1002 Z M2.1176 14.2721 L3.4494 14.2721 L3.4494 10.0285 L2.1176 10.0285 Z M4.7151 19.7647 L6.4439 19.7647 L6.4439 18.4329 L4.7316 18.4329 C3.9044 18.4329 3.4494 17.9945 3.4494 17.1342 L3.4494 15.4054 L2.1176 15.4054 L2.1176 17.2004 C2.1176 18.9127 2.9862 19.7647 4.7151 19.7647 Z M7.5772 19.7647 L11.3079 19.7647 L11.3079 18.4329 L7.5772 18.4329 Z M12.4329 19.7647 L16.1636 19.7647 L16.1636 18.4329 L12.4329 18.4329 Z M19.0257 19.7647 C20.7546 19.7647 21.6231 18.9127 21.6231 17.2004 L21.6231 15.4054 L20.2913 15.4054 L20.2913 17.1342 C20.2913 17.9945 19.8364 18.4329 19.0092 18.4329 L17.2969 18.4329 L17.2969 19.7647 Z M21.6231 8.8953 L21.6231 7.1002 C21.6231 5.3879 20.7546 4.5359 19.0257 4.5359 L17.2969 4.5359 L17.2969 5.8677 L19.0092 5.8677 C19.8364 5.8677 20.2913 6.3061 20.2913 7.1664 L20.2913 8.8953 Z M21.6231 14.2721 L21.6231 10.0285 L20.2913 10.0285 L20.2913 14.2721 Z M7.5772 5.8677 L11.3079 5.8677 L11.3079 4.5359 L7.5772 4.5359 Z M12.4329 5.8677 L16.1636 5.8677 L16.1636 4.5359 L12.4329 4.5359 Z"/>
  </symbol>
  <symbol id="sf-macwindow" viewBox="0 0 24 24">
    <path fill="currentColor" d="M5.6085 19.7647 L18.3391 19.7647 C20.4237 19.7647 21.6231 18.5073 21.6231 16.2739 L21.6231 8.0349 C21.6231 5.8015 20.4237 4.5358 18.3391 4.5358 L5.6085 4.5358 C3.3833 4.5358 2.1176 5.8015 2.1176 8.0349 L2.1176 16.2739 C2.1176 18.5073 3.3833 19.7647 5.6085 19.7647 Z M5.6167 18.4329 C4.2436 18.4329 3.4494 17.647 3.4494 16.2739 L3.4494 8.0349 C3.4494 6.6618 4.2436 5.8676 5.6167 5.8676 L18.1241 5.8676 C19.4972 5.8676 20.2913 6.6618 20.2913 8.0349 L20.2913 16.2739 C20.2913 17.647 19.4972 18.4329 18.1241 18.4329 Z"/>
    <path fill="currentColor" d="M5.7822 8.8952 C6.1875 8.8952 6.5184 8.5478 6.5184 8.159 C6.5184 7.7619 6.1875 7.4145 5.7822 7.4145 C5.3768 7.4145 5.046 7.7619 5.046 8.159 C5.046 8.5478 5.3768 8.8952 5.7822 8.8952 Z"/>
    <path fill="currentColor" d="M8.1562 8.8952 C8.5616 8.8952 8.8925 8.5478 8.8925 8.159 C8.8925 7.7619 8.5616 7.4145 8.1562 7.4145 C7.7509 7.4145 7.42 7.7619 7.42 8.159 C7.42 8.5478 7.7509 8.8952 8.1562 8.8952 Z"/>
    <path fill="currentColor" d="M10.5303 8.8952 C10.9357 8.8952 11.2665 8.5478 11.2665 8.159 C11.2665 7.7619 10.9357 7.4145 10.5303 7.4145 C10.125 7.4145 9.7941 7.7619 9.7941 8.159 C9.7941 8.5478 10.125 8.8952 10.5303 8.8952 Z"/>
  </symbol>
  <symbol id="sf-square-resize-down" viewBox="0 0 24 24">
    <path fill="currentColor" d="M3.4353 21.4285 C3.9074 21.4285 4.2991 21.0368 4.2991 20.5647 C4.2991 20.0926 3.9074 19.7009 3.4353 19.7009 C2.9632 19.7009 2.5714 20.0926 2.5714 20.5647 C2.5714 21.0368 2.9632 21.4285 3.4353 21.4285 Z M3.4353 18.6261 C3.9074 18.6261 4.2991 18.2343 4.2991 17.7622 C4.2991 17.2801 3.9074 16.8984 3.4353 16.8984 C2.9632 16.8984 2.5714 17.2801 2.5714 17.7622 C2.5714 18.2343 2.9632 18.6261 3.4353 18.6261 Z M3.4353 15.8136 C3.9074 15.8136 4.2991 15.4218 4.2991 14.9497 C4.2991 14.4776 3.9074 14.0859 3.4353 14.0859 C2.9632 14.0859 2.5714 14.4776 2.5714 14.9497 C2.5714 15.4218 2.9632 15.8136 3.4353 15.8136 Z M3.4353 13.0011 C3.9074 13.0011 4.2991 12.6093 4.2991 12.1372 C4.2991 11.6652 3.9074 11.2734 3.4353 11.2734 C2.9632 11.2734 2.5714 11.6652 2.5714 12.1372 C2.5714 12.6093 2.9632 13.0011 3.4353 13.0011 Z M6.2478 13.0011 C6.7199 13.0011 7.1116 12.6093 7.1116 12.1372 C7.1116 11.6652 6.7199 11.2734 6.2478 11.2734 C5.7757 11.2734 5.3839 11.6652 5.3839 12.1372 C5.3839 12.6093 5.7757 13.0011 6.2478 13.0011 Z M9.0502 13.0011 C9.5223 13.0011 9.9141 12.6093 9.9141 12.1372 C9.9141 11.6652 9.5223 11.2734 9.0502 11.2734 C8.5781 11.2734 8.1864 11.6652 8.1864 12.1372 C8.1864 12.6093 8.5781 13.0011 9.0502 13.0011 Z M11.8627 13.0011 C12.3348 13.0011 12.7265 12.6093 12.7265 12.1372 C12.7265 11.6652 12.3348 11.2734 11.8627 11.2734 C11.3906 11.2734 10.9989 11.6652 10.9989 12.1372 C10.9989 12.6093 11.3906 13.0011 11.8627 13.0011 Z M11.8627 15.8136 C12.3348 15.8136 12.7265 15.4218 12.7265 14.9497 C12.7265 14.4776 12.3348 14.0859 11.8627 14.0859 C11.3906 14.0859 10.9989 14.4776 10.9989 14.9497 C10.9989 15.4218 11.3906 15.8136 11.8627 15.8136 Z M11.8627 18.6261 C12.3348 18.6261 12.7265 18.2343 12.7265 17.7622 C12.7265 17.2801 12.3348 16.8984 11.8627 16.8984 C11.3906 16.8984 10.9989 17.2801 10.9989 17.7622 C10.9989 18.2343 11.3906 18.6261 11.8627 18.6261 Z M11.8627 21.4285 C12.3348 21.4285 12.7265 21.0368 12.7265 20.5647 C12.7265 20.0926 12.3348 19.7009 11.8627 19.7009 C11.3906 19.7009 10.9989 20.0926 10.9989 20.5647 C10.9989 21.0368 11.3906 21.4285 11.8627 21.4285 Z M9.0502 21.4285 C9.5223 21.4285 9.9141 21.0368 9.9141 20.5647 C9.9141 20.0926 9.5223 19.7009 9.0502 19.7009 C8.5781 19.7009 8.1864 20.0926 8.1864 20.5647 C8.1864 21.0368 8.5781 21.4285 9.0502 21.4285 Z M6.2478 21.4285 C6.7199 21.4285 7.1116 21.0368 7.1116 20.5647 C7.1116 20.0926 6.7199 19.7009 6.2478 19.7009 C5.7757 19.7009 5.3839 20.0926 5.3839 20.5647 C5.3839 21.0368 5.7757 21.4285 6.2478 21.4285 Z"/>
    <path fill="currentColor" d="M2.5815 10.1082 L4.1987 10.1082 L4.1987 4.8147 C4.1987 4.5937 4.279 4.5234 4.49 4.5234 L16.8449 4.5234 L18.4821 2.9062 L3.385 2.9062 C2.9029 2.9062 2.5815 3.2176 2.5815 3.6998 Z M17.8694 8.6317 L15.2176 5.9799 C14.8962 5.6584 14.4241 5.8292 14.3237 6.2812 L13.6205 9.5156 C13.5402 9.9375 13.9018 10.289 14.3136 10.1785 L17.558 9.5055 C18.0201 9.4152 18.1808 8.9631 17.8694 8.6317 Z M19.7176 3.2879 L14.8962 8.1194 C14.6652 8.3404 14.6451 8.7321 14.8962 8.9832 C15.1373 9.2142 15.519 9.2142 15.76 8.9732 L20.5815 4.1417 C20.8125 3.9107 20.8225 3.529 20.5915 3.2879 C20.3404 3.0468 19.9587 3.0569 19.7176 3.2879 Z"/>
    <path fill="currentColor" d="M13.8917 21.3984 L20.2801 21.3984 C20.7623 21.3984 21.0736 21.077 21.0736 20.5948 L21.0736 5.337 L19.4565 6.9241 L19.4565 19.4899 C19.4565 19.7009 19.3862 19.7812 19.1652 19.7812 L13.8917 19.7812 Z"/>
  </symbol>
  <symbol id="sf-ellipsis" viewBox="0 0 24 24">
    <path fill="currentColor" d="M19.9759 14.3077 C21.1118 14.3077 22.0312 13.399 22.0312 12.2632 C22.0312 11.1274 21.1118 10.2079 19.9759 10.2079 C18.8401 10.2079 17.9207 11.1274 17.9207 12.2632 C17.9207 13.399 18.8401 14.3077 19.9759 14.3077 Z"/>
    <path fill="currentColor" d="M11.9387 14.3077 C13.0745 14.3077 13.9832 13.399 13.9832 12.2632 C13.9832 11.1274 13.0745 10.2079 11.9387 10.2079 C10.8029 10.2079 9.8834 11.1274 9.8834 12.2632 C9.8834 13.399 10.8029 14.3077 11.9387 14.3077 Z"/>
    <path fill="currentColor" d="M3.9014 14.3077 C5.0373 14.3077 5.9459 13.399 5.9459 12.2632 C5.9459 11.1274 5.0373 10.2079 3.9014 10.2079 C2.7656 10.2079 1.8462 11.1274 1.8462 12.2632 C1.8462 13.399 2.7656 14.3077 3.9014 14.3077 Z"/>
  </symbol>
</svg>
